<svg xmlns="http://www.w3.org/2000/svg" display="none">

    <symbol id="arrow-bottom" viewBox="0 0 10 6">
        <path d="M2 1.5L5 4.5L8 1.5" stroke-width="1.5" stroke-linecap="square"/>
    </symbol>


    <symbol id="user" viewBox="0 0 16 16">
        <path d="M7.99998 9.01216C3.19258 9.01216 0.544983 11.2864 0.544983 15.4161C0.544983 15.7386 0.806389 16 1.12892 16H14.871C15.1935 16 15.4549 15.7386 15.4549 15.4161C15.455 11.2866 12.8074 9.01216 7.99998 9.01216ZM1.73411 14.8321C1.9638 11.7444 4.06889 10.1801 7.99998 10.1801C11.9311 10.1801 14.0362 11.7444 14.2661 14.8321H1.73411Z"/>
        <path d="M8 0C5.79172 0 4.12653 1.69869 4.12653 3.95116C4.12653 6.26959 5.86415 8.15553 8 8.15553C10.1358 8.15553 11.8735 6.26959 11.8735 3.95134C11.8735 1.69869 10.2083 0 8 0ZM8 6.98784C6.50803 6.98784 5.2944 5.62569 5.2944 3.95134C5.2944 2.3385 6.43231 1.16788 8 1.16788C9.5426 1.16788 10.7056 2.36437 10.7056 3.95134C10.7056 5.62569 9.49197 6.98784 8 6.98784Z"/>
    </symbol>


    <symbol id="double-arrow" viewBox="0 0 13 14">
        <path d="M2 2L6.5 6L11 2" stroke-width="1.5" stroke-linecap="square"/>
        <path d="M2 8L6.5 12L11 8" stroke-width="1.5" stroke-linecap="square"/>
    </symbol>

    <symbol id="search" viewBox="0 0 16 16">
        <path d="M15.804 14.8637L11.9576 11.0171C12.9111 9.85468 13.4857 8.36571 13.4857 6.74286C13.4857 3.02041 10.4653 0 6.74286 0C3.01714 0 0 3.02041 0 6.74286C0 10.4653 3.01714 13.4857 6.74286 13.4857C8.36571 13.4857 9.85139 12.9143 11.0138 11.9608L14.8604 15.804C15.1216 16.0653 15.5429 16.0653 15.804 15.804C16.0653 15.5462 16.0653 15.1216 15.804 14.8637ZM6.74286 12.1437C3.76163 12.1437 1.33878 9.72085 1.33878 6.74286C1.33878 3.76489 3.76163 1.33878 6.74286 1.33878C9.72085 1.33878 12.1469 3.76489 12.1469 6.74286C12.1469 9.72085 9.72085 12.1437 6.74286 12.1437Z"/>
    </symbol>


    <symbol id="double-arrow2" viewBox="0 0 7 11">
        <path d="M1 7L3.5 9.5L6 7" stroke-width="1.2" stroke-linecap="square"/>
        <path d="M6 4L3.5 1.5L1 4" stroke-width="1.2" stroke-linecap="square"/>
    </symbol>

    <symbol id="arrow-right" viewBox="0 0 7 12">
        <path d="M1 11L6 6L1 1" stroke-linecap="square"/>
    </symbol>


    <symbol id="arrow-left" viewBox="0 0 7 12">
        <path d="M6 1L1 6L6 11" stroke-linecap="square"/>
    </symbol>

    <symbol id="arrow-right2" viewBox="0 0 6 10">
        <path d="M1.5 8L4.5 5L1.5 2" stroke-width="1.5" stroke-linecap="square"/>
    </symbol>

</svg>