<svg width="18" height="18" viewBox="0 0 18 18" fill="none" xmlns="http://www.w3.org/2000/svg">
    <g clip-path="url(#clip0_4_160)">
        <path d="M8.24538 17.0522C7.93523 17.0765 7.668 17.0716 7.60708 17.0432C7.55723 17.0197 7.66454 16.9075 7.79815 16.7975C7.95323 16.6694 7.812 16.5385 7.73723 16.4721C7.48661 16.2492 7.24846 16.0068 7.02415 15.7486C6.96877 15.6849 6.83861 15.5555 6.59008 15.5596C6.19546 15.5665 5.69631 15.5838 5.63331 15.5541C5.58762 15.5326 5.85069 15.3132 6.10754 15.1068C6.33046 14.9275 6.24046 14.697 6.17608 14.5911C5.96908 14.2512 5.78285 13.8932 5.616 13.5194C5.58139 13.4418 5.47615 13.2944 5.23731 13.2902C4.86277 13.2847 4.437 13.3103 4.37885 13.2833C4.33315 13.2612 4.66338 12.9496 4.99638 12.6734C5.07323 12.6097 5.19508 12.4615 5.12169 12.1611C5.01715 11.7284 4.90085 11.2915 4.82954 10.8374C4.81223 10.7266 4.71877 10.5037 4.47023 10.5099C4.13031 10.5203 3.78692 10.5245 3.735 10.5002C3.69 10.4788 4.02992 10.1742 4.40377 9.89585C4.50485 9.82177 4.66408 9.76708 4.69385 9.378C4.70215 9.26792 4.68692 9.15715 4.68692 9.04569C4.68692 8.67115 4.70008 8.30215 4.743 7.94008C4.78315 7.60431 4.581 7.53646 4.46954 7.542C4.12685 7.55931 3.77931 7.57662 3.72877 7.55238C3.67892 7.52885 4.17392 7.17231 4.65231 6.87808C4.74854 6.81992 4.91331 6.70708 5.00331 6.40385C5.12792 5.985 5.23385 5.56615 5.38962 5.17085C5.53015 4.81361 5.24285 4.75408 5.09746 4.75685C4.72846 4.76377 4.428 4.78315 4.36915 4.75615C4.31377 4.72985 4.94654 4.365 5.53639 4.11992C5.67346 4.06246 5.92339 3.95169 6.15808 3.57646C6.33531 3.294 6.53054 3.02746 6.714 2.75815C6.89469 2.49369 6.69531 2.45838 6.57554 2.45838C6.12138 2.45838 5.72608 2.49369 5.65754 2.46046C5.59385 2.43138 6.59838 2.04438 7.20208 1.89208C7.33361 1.85885 7.51708 1.81038 7.75869 1.61169C7.96431 1.44208 8.15885 1.26 8.37415 1.10908C8.56523 0.974769 8.41015 0.947077 8.32292 0.945692C7.82169 0.938769 7.36546 0.982385 7.29069 0.947077C7.21869 0.913154 8.57077 0.668769 9.10246 0.632077C9.56977 0.366231 10.3666 0.148846 10.8824 0C10.7488 0 10.6359 0.000692308 10.5923 0.00415385H7.59185C7.42292 0.0256154 6.70085 -0.00553846 6.57 0.00415385C6.23008 0.0408462 5.99538 0.0754615 5.66931 0.206308C5.45469 0.292846 5.38477 0.569077 5.53085 0.627923C5.69285 0.693 6.30969 0.906923 6.23423 0.945C6.17192 0.976154 5.35638 0.945 4.84477 0.909692C4.64123 0.895154 4.35877 0.877154 4.23969 0.963692C3.93646 1.18385 4.03062 1.13608 3.74815 1.42062C3.636 1.53346 3.60762 1.77715 3.76962 1.85331C3.92538 1.92531 4.68069 2.43 4.57962 2.48054C4.49308 2.52415 3.44008 2.59823 3.18254 2.574C2.92777 2.55046 2.79346 2.565 2.69377 2.70692C2.44662 3.05931 2.42031 3.18392 2.21608 3.59723C2.13508 3.76062 2.142 4.05415 2.26523 4.11715C2.38846 4.17946 2.97 4.45638 3.32446 4.752C2.92431 4.71946 2.15031 4.88215 1.97723 4.88215C1.80415 4.88215 1.66638 4.89115 1.60546 5.07392C1.44969 5.53777 1.42131 5.71361 1.32162 6.20308C1.28285 6.399 1.35346 6.59769 1.50508 6.68423C1.65669 6.77077 2.80385 7.54823 2.68685 7.542C2.49231 7.53092 1.48777 7.76977 1.33615 7.77254C1.18454 7.77531 1.08554 7.89369 1.06892 8.09308C1.03777 8.46623 1.05231 8.46623 1.05231 8.84769C1.053 8.98477 1.05508 9.12185 1.05923 9.25685C1.06546 9.45554 1.24338 9.67154 1.40954 9.74977C1.63662 9.85777 2.80177 10.4303 2.69792 10.4829C2.61208 10.5258 1.55838 10.656 1.45038 10.6595C1.20531 10.6671 1.17554 10.9122 1.20392 11.1122C1.27592 11.6142 1.28146 11.7076 1.41162 12.1874C1.44969 12.3314 1.57638 12.4615 1.70654 12.5052C1.83669 12.5488 3.48369 13.221 3.37915 13.2736C3.29262 13.3172 2.30538 13.5055 2.14962 13.5125C1.94262 13.5235 1.96408 13.8178 2.05892 14.0317C2.24931 14.4623 2.16 14.3308 2.38915 14.7143C2.43623 14.7953 2.64808 14.9234 2.71385 14.9372C2.844 14.9663 4.71738 15.4925 4.61285 15.5444C4.52631 15.588 3.52523 15.6365 3.33969 15.6468C3.15415 15.6572 3.17838 15.9348 3.28431 16.0615C3.55362 16.3821 3.48992 16.3281 3.78138 16.5815C3.94685 16.7255 4.33246 16.7137 4.35808 16.7331C4.74369 16.794 6.36577 17.0093 6.26746 17.0592C6.18092 17.1028 5.58277 17.1685 5.01231 17.2364C4.83162 17.2281 4.977 17.4794 5.10646 17.5431C5.42908 17.7058 5.76277 17.8269 6.09992 17.9031C6.11308 17.9058 6.12485 17.9072 6.13662 17.9072C6.25708 17.9072 7.01169 17.9792 7.14461 17.9792C7.31561 17.9792 9.63138 17.9917 10.7647 17.9972C10.1042 17.8062 9.22292 17.5154 8.61231 17.1395C8.56108 17.1083 8.42954 17.037 8.24538 17.0522Z" fill="#333333"/>
        <path d="M16.9262 8.16785C16.9138 7.96362 16.8085 7.81754 16.6597 7.83069C16.6562 7.83138 16.6528 7.839 16.6486 7.83969C16.6272 7.59046 16.6008 7.34331 16.5635 7.10031C16.5676 7.09962 16.5704 7.10031 16.5732 7.09892C16.7033 7.04562 16.7815 6.84138 16.7462 6.64338C16.6576 6.14769 16.5385 5.65823 16.3945 5.19023C16.3392 5.00262 16.0428 4.92508 16.0428 4.92508C16.0428 4.92508 15.903 4.58169 15.8151 4.37123C15.8178 4.36777 15.822 4.36915 15.8248 4.36638C15.9355 4.24938 15.9639 4.01815 15.8864 3.84992C15.6925 3.42692 15.4717 3.02677 15.2328 2.65985C15.138 2.51446 14.7808 2.52969 14.778 2.53523C14.7455 2.48123 14.6326 2.33792 14.5018 2.18215C14.5052 2.17592 14.5094 2.17938 14.5122 2.17315C14.5918 2.00631 14.5655 1.77369 14.4561 1.65462C14.1771 1.35415 13.8815 1.08969 13.5762 0.867462C13.4529 0.779539 12.9185 0.857769 12.9185 0.857769L12.7821 0.788539C12.7842 0.783 12.7876 0.781615 12.7883 0.777462C12.8257 0.580154 12.7495 0.374538 12.6201 0.318462C12.2926 0.179308 11.9555 0.0816923 11.6148 0.0297692C11.5158 0.0103846 11.1621 0.00138462 10.8935 0C10.3708 0.18 9.86746 0.427154 9.39116 0.737308C9.85085 0.792 8.8117 1.52308 8.89131 1.09454C8.59085 1.32854 8.30493 1.58954 8.03493 1.87615C8.47523 1.91838 7.65623 2.95685 7.52193 2.47569C7.17646 2.92292 6.86631 3.41723 6.597 3.95515C6.99716 3.83538 6.51462 5.15215 6.23216 4.78108C6.00854 5.35362 5.83062 5.96769 5.70323 6.62054C6.07569 6.48346 5.89985 7.68323 5.56408 7.51085C5.50593 8.00308 5.47546 8.51538 5.47546 9.04431C5.47546 9.15438 5.47685 9.26377 5.47962 9.37246C5.84169 9.22015 6.01754 10.3175 5.53569 10.3272C5.60008 10.9883 5.71362 11.6142 5.87008 12.2019C6.09023 11.9852 6.66139 12.9372 6.14908 13.0881C6.34085 13.6128 6.57 14.103 6.83169 14.5565C6.96739 14.2968 7.65554 15.1456 7.263 15.2308C7.56762 15.6628 7.90546 16.0532 8.26823 16.4022C8.32846 16.155 9.04569 16.6964 8.76462 16.8404C9.38423 17.3402 10.0634 17.7272 10.7792 17.9972C11.1413 17.9986 11.3808 18 11.3808 18C11.7457 17.9868 11.9222 17.946 12.0738 17.9024C12.2068 17.8636 12.4712 17.4517 12.4712 17.4517C12.4712 17.4517 12.9503 17.4288 13.0493 17.4288C13.0791 17.4288 13.1088 17.4205 13.1379 17.4039C13.4536 17.2191 13.7617 16.9913 14.0552 16.7255C14.1715 16.6209 14.2089 16.3925 14.139 16.2166C14.1369 16.2125 14.1335 16.2125 14.1328 16.2083C14.2705 16.0705 14.2982 16.0366 14.4298 15.8815C14.4312 15.8857 14.6541 15.9092 14.7233 15.9092C14.7794 15.9092 14.8375 15.8795 14.8825 15.8192C15.1408 15.4835 15.3817 15.1117 15.5977 14.7122C15.6828 14.5537 15.669 14.3211 15.5645 14.1902C15.5603 14.1854 15.5555 14.1882 15.552 14.184C15.651 13.9832 15.723 13.8489 15.8123 13.6343C15.8151 13.6378 15.9224 13.6246 15.9639 13.6246C16.0491 13.6246 16.1301 13.5568 16.1765 13.437C16.3454 12.9898 16.488 12.5169 16.6036 12.0316C16.6493 11.8385 16.5822 11.6259 16.4548 11.556C16.4527 11.5553 16.4506 11.5574 16.4485 11.5567C16.4977 11.3185 16.5372 11.0755 16.5725 10.8298C16.5759 10.8305 16.5766 10.836 16.5794 10.8367C16.5939 10.8402 16.6085 10.8415 16.6216 10.8415C16.74 10.8415 16.8432 10.7135 16.8639 10.5335C16.9214 10.0274 16.9512 9.50815 16.9512 8.99031C16.9505 8.71338 16.9422 8.43854 16.9262 8.16785ZM11.4141 14.7205C9.52754 14.7205 7.99823 12.1597 7.99823 9.00208C7.99823 5.84308 9.52754 3.28292 11.4141 3.28292C13.3013 3.28292 14.8292 5.84308 14.8292 9.00208C14.8292 12.159 13.3013 14.7205 11.4141 14.7205Z" fill="#333333"/>
    </g>
    <defs>
        <clipPath id="clip0_4_160">
            <rect width="18" height="18" fill="white"/>
        </clipPath>
    </defs>
</svg>
