<svg width="18" height="18" viewBox="0 0 18 18" fill="none" xmlns="http://www.w3.org/2000/svg">
    <path d="M9 0C4.03749 0 0 4.03749 0 9C0 13.9625 4.03749 18 9 18C13.9625 18 18 13.9625 18 9C18 4.03749 13.9625 0 9 0ZM13.6044 3.36181C13.7055 3.24922 13.8483 3.18272 13.9999 3.17671C14.1306 3.16189 14.2987 3.2256 14.4086 3.32996C15.5753 4.43464 16.3686 5.8409 16.7003 7.39656C16.753 7.64483 16.6333 7.89754 16.4081 8.01397C15.8576 8.29853 15.204 8.43638 14.5778 8.43638C13.7615 8.43638 12.988 8.20234 12.5398 7.7541C11.5862 6.80109 11.9839 5.1592 13.6044 3.36181ZM4.39567 14.726C4.29457 14.8386 4.15177 14.9057 4.00016 14.9117C3.99357 14.9123 3.98587 14.9123 3.97817 14.9123C3.83426 14.9123 3.69583 14.8573 3.59147 14.7584C2.42472 13.6537 1.63149 12.2475 1.29974 10.6913C1.24701 10.443 1.36677 10.1903 1.592 10.0739C2.85983 9.41966 4.66814 9.54158 5.46027 10.3337C6.41275 11.2868 6.01503 12.9287 4.39567 14.726ZM5.46021 7.75415C5.01197 8.20239 4.23852 8.43643 3.42224 8.43643C2.79602 8.43643 2.14344 8.29853 1.59194 8.01403C1.36671 7.89759 1.24695 7.64489 1.29969 7.39661C1.63149 5.84095 2.42467 4.43469 3.59141 3.33001C3.70126 3.22565 3.86279 3.16084 4.00011 3.17677C4.15172 3.18283 4.29452 3.24927 4.39561 3.36186C6.01614 5.1592 6.41381 6.80109 5.46021 7.75415ZM11.3972 16.5009C10.6183 16.7492 9.81184 16.875 9 16.875C8.18816 16.875 7.38169 16.7492 6.60281 16.5009C6.35559 16.4218 6.19412 16.1845 6.21168 15.9258C6.35232 13.9015 7.55091 12.375 9 12.375C10.4491 12.375 11.6477 13.9015 11.7883 15.9258C11.8059 16.1845 11.6444 16.4218 11.3972 16.5009ZM6.74999 9C6.74999 7.75911 7.75964 6.74999 9 6.74999C10.2404 6.74999 11.25 7.75906 11.25 9C11.25 10.2409 10.2404 11.25 9 11.25C7.75964 11.25 6.74999 10.2409 6.74999 9ZM11.7883 2.11871C11.6477 4.14238 10.4491 5.66893 9 5.66893C7.55091 5.66893 6.35232 4.14238 6.21168 2.11871C6.19412 1.85999 6.35448 1.62269 6.6017 1.54411C8.15957 1.04641 9.84048 1.04641 11.3983 1.54411C11.6455 1.62269 11.8059 1.85999 11.7883 2.11871ZM16.7003 10.6018C16.3685 12.158 15.5753 13.5643 14.4086 14.6689C14.3042 14.7678 14.1658 14.8228 14.0219 14.8228C14.0142 14.8228 14.0065 14.8228 13.9999 14.8222C13.8483 14.8162 13.7055 14.7497 13.6044 14.6371C11.9839 12.8398 11.5862 11.1973 12.5398 10.2443C13.3319 9.45162 15.1392 9.33128 16.4081 9.98444C16.6333 10.1008 16.753 10.3535 16.7003 10.6018Z" fill="#333333"/>
</svg>
